<svg width="123" height="122" viewBox="0 0 123 122" fill="none" xmlns="http://www.w3.org/2000/svg">
<circle cx="61.8184" cy="61" r="61" fill="#23C7EC"/>
<path d="M75.5273 79.6562V85H48.3633V80.4077L61.5557 66.0186C63.0029 64.3857 64.144 62.9756 64.979 61.7881C65.814 60.6006 66.3984 59.5337 66.7324 58.5874C67.085 57.6226 67.2612 56.6855 67.2612 55.7764C67.2612 54.4961 67.02 53.3735 66.5376 52.4087C66.0737 51.4253 65.3872 50.6553 64.478 50.0986C63.5688 49.5234 62.4648 49.2358 61.166 49.2358C59.6631 49.2358 58.4014 49.5605 57.3809 50.21C56.3604 50.8594 55.5903 51.7593 55.0708 52.9097C54.5513 54.0415 54.2915 55.3403 54.2915 56.8062H47.584C47.584 54.4497 48.1221 52.2974 49.1982 50.3491C50.2744 48.3823 51.833 46.8237 53.874 45.6733C55.915 44.5044 58.3735 43.9199 61.2495 43.9199C63.9585 43.9199 66.2593 44.3745 68.1519 45.2837C70.0444 46.1929 71.4824 47.4824 72.4658 49.1523C73.4678 50.8223 73.9688 52.7983 73.9688 55.0806C73.9688 56.3423 73.7646 57.5947 73.3564 58.8379C72.9482 60.0811 72.3638 61.3242 71.603 62.5674C70.8608 63.792 69.9795 65.0259 68.959 66.269C67.9385 67.4937 66.8159 68.7368 65.5913 69.9985L56.8242 79.6562H75.5273Z" fill="white"/>
</svg>
