<svg width="60" height="60" viewBox="0 0 60 60" fill="none" xmlns="http://www.w3.org/2000/svg">
<circle cx="30" cy="30" r="30" fill="#15A9CB"/>
<path d="M25.028 32.094C25.2187 32.094 25.3653 32.182 25.468 32.358C25.5853 32.534 25.644 32.776 25.644 33.084C25.644 33.656 25.5047 34.1107 25.226 34.448C24.4047 35.4307 23.6053 36.12 22.828 36.516C22.0653 36.912 21.1413 37.11 20.056 37.11C19.2933 37.11 18.5893 37.0147 17.944 36.824C17.2987 36.6333 16.514 36.3473 15.59 35.966C14.754 35.5993 13.9473 35.2987 13.17 35.064C12.422 36.428 11.3 37.11 9.804 37.11C8.98267 37.11 8.33 36.9267 7.846 36.56C7.34733 36.1787 7.098 35.6947 7.098 35.108C7.098 34.3893 7.44267 33.7953 8.132 33.326C8.82133 32.842 9.738 32.6 10.882 32.6H11.168L11.564 26.198C11.652 24.7313 11.916 23.5213 12.356 22.568C12.796 21.6147 13.4047 20.8007 14.182 20.126C14.8567 19.5393 15.6267 19.0993 16.492 18.806C17.3573 18.498 18.274 18.344 19.242 18.344C20.826 18.344 22.0433 18.7547 22.894 19.576C23.7447 20.3973 24.17 21.468 24.17 22.788C24.17 23.6827 24.0087 24.4087 23.686 24.966C23.3633 25.5087 22.916 25.78 22.344 25.78C21.9333 25.78 21.6107 25.6847 21.376 25.494C21.1413 25.2887 21.024 25.0027 21.024 24.636C21.024 24.504 21.0533 24.262 21.112 23.91C21.2 23.4993 21.244 23.1327 21.244 22.81C21.244 22.194 21.0607 21.71 20.694 21.358C20.342 20.9913 19.7993 20.808 19.066 20.808C17.7753 20.808 16.778 21.2333 16.074 22.084C15.37 22.92 14.9227 24.24 14.732 26.044L14.226 31.038C14.1527 31.742 14.0573 32.3507 13.94 32.864C14.8787 33.0253 16.052 33.282 17.46 33.634C18.2813 33.8393 18.912 33.986 19.352 34.074C19.792 34.162 20.1807 34.206 20.518 34.206C21.3687 34.206 22.0947 34.0667 22.696 33.788C23.312 33.4947 23.8913 33.0327 24.434 32.402C24.61 32.1967 24.808 32.094 25.028 32.094ZM36.8405 30.246C37.0311 30.246 37.1778 30.3413 37.2805 30.532C37.3831 30.7227 37.4345 30.9647 37.4345 31.258C37.4345 31.962 37.2218 32.38 36.7965 32.512C35.9165 32.82 34.9485 32.996 33.8925 33.04C33.6138 34.272 33.0638 35.262 32.2425 36.01C31.4211 36.7433 30.4898 37.11 29.4485 37.11C28.5685 37.11 27.8131 36.8973 27.1825 36.472C26.5665 36.0467 26.0971 35.482 25.7745 34.778C25.4518 34.074 25.2905 33.3113 25.2905 32.49C25.2905 31.3753 25.5031 30.3853 25.9285 29.52C26.3538 28.64 26.9405 27.958 27.6885 27.474C28.4365 26.9753 29.2651 26.726 30.1745 26.726C31.2891 26.726 32.1838 27.1147 32.8585 27.892C33.5478 28.6547 33.9511 29.6007 34.0685 30.73C34.7578 30.686 35.5791 30.5393 36.5325 30.29C36.6498 30.2607 36.7525 30.246 36.8405 30.246ZM29.6245 34.778C30.0938 34.778 30.4971 34.5873 30.8345 34.206C31.1865 33.8247 31.4211 33.2747 31.5385 32.556C31.0838 32.248 30.7318 31.8447 30.4825 31.346C30.2478 30.8473 30.1305 30.3193 30.1305 29.762C30.1305 29.5273 30.1525 29.2927 30.1965 29.058H30.0865C29.4998 29.058 29.0085 29.344 28.6125 29.916C28.2311 30.4733 28.0405 31.2653 28.0405 32.292C28.0405 33.0987 28.1945 33.7147 28.5025 34.14C28.8251 34.5653 29.1991 34.778 29.6245 34.778ZM46.8102 32.138C47.0009 32.138 47.1476 32.2333 47.2502 32.424C47.3676 32.6 47.4262 32.8273 47.4262 33.106C47.4262 33.4433 47.3749 33.7073 47.2722 33.898C47.1696 34.0887 47.0082 34.2573 46.7882 34.404C45.5269 35.2547 44.6029 35.8853 44.0162 36.296L42.6082 37.242C42.0509 40.278 41.3176 42.6613 40.4082 44.392C39.5136 46.1373 38.3696 47.01 36.9762 47.01C36.2282 47.01 35.6196 46.7753 35.1502 46.306C34.6809 45.8513 34.4462 45.25 34.4462 44.502C34.4462 43.4607 34.8569 42.3387 35.6782 41.136C36.4996 39.948 38.0396 38.4813 40.2982 36.736L40.4302 35.878C40.1809 36.274 39.8509 36.582 39.4402 36.802C39.0442 37.0073 38.6482 37.11 38.2522 37.11C37.3429 37.11 36.6169 36.78 36.0742 36.12C35.5316 35.46 35.2602 34.5947 35.2602 33.524C35.2602 32.3507 35.5316 31.2433 36.0742 30.202C36.6169 29.146 37.3356 28.3027 38.2302 27.672C39.1396 27.0267 40.1002 26.704 41.1122 26.704C41.4349 26.704 41.6476 26.77 41.7502 26.902C41.8676 27.0193 41.9629 27.2393 42.0362 27.562C42.3149 27.5033 42.6376 27.474 43.0042 27.474C43.3709 27.474 43.6276 27.5327 43.7742 27.65C43.9356 27.7527 44.0162 27.9653 44.0162 28.288C44.0162 28.464 44.0089 28.6033 43.9942 28.706C43.9356 29.1607 43.7522 30.312 43.4442 32.16C43.3856 32.512 43.3196 32.9007 43.2462 33.326C43.1876 33.7367 43.1216 34.1767 43.0482 34.646C44.1776 33.766 45.2629 32.9887 46.3042 32.314C46.4949 32.1967 46.6636 32.138 46.8102 32.138ZM39.0442 34.888C39.3816 34.888 39.7042 34.6827 40.0122 34.272C40.3202 33.8613 40.5402 33.2747 40.6722 32.512L41.3762 28.75C40.7749 28.7647 40.2176 28.9993 39.7042 29.454C39.1909 29.894 38.7802 30.4807 38.4722 31.214C38.1642 31.9473 38.0102 32.7247 38.0102 33.546C38.0102 34.0007 38.0982 34.338 38.2742 34.558C38.4649 34.778 38.7216 34.888 39.0442 34.888ZM37.2182 44.876C37.5849 44.876 37.9956 44.436 38.4502 43.556C38.9196 42.676 39.3669 41.2753 39.7922 39.354C38.6629 40.322 37.8489 41.1947 37.3502 41.972C36.8516 42.7493 36.6022 43.4313 36.6022 44.018C36.6022 44.2673 36.6462 44.4727 36.7342 44.634C36.8369 44.7953 36.9982 44.876 37.2182 44.876ZM49.7916 37.11C48.9262 37.11 48.1856 36.8973 47.5696 36.472C46.9682 36.032 46.5136 35.46 46.2056 34.756C45.8976 34.052 45.7436 33.2967 45.7436 32.49C45.7436 31.3753 45.9489 30.3853 46.3596 29.52C46.7849 28.64 47.3569 27.958 48.0756 27.474C48.7942 26.9753 49.6009 26.726 50.4956 26.726C51.3609 26.726 52.1016 26.946 52.7176 27.386C53.3336 27.8113 53.7956 28.376 54.1036 29.08C54.4116 29.784 54.5656 30.5393 54.5656 31.346C54.5656 32.4607 54.3529 33.458 53.9276 34.338C53.5022 35.2033 52.9229 35.8853 52.1896 36.384C51.4709 36.868 50.6716 37.11 49.7916 37.11ZM50.0336 34.734C50.5322 34.734 50.9502 34.4627 51.2876 33.92C51.6396 33.3773 51.8156 32.5853 51.8156 31.544C51.8156 30.7373 51.6689 30.1287 51.3756 29.718C51.0822 29.3073 50.7302 29.102 50.3196 29.102C49.7916 29.102 49.3516 29.3733 48.9996 29.916C48.6622 30.444 48.4936 31.236 48.4936 32.292C48.4936 33.128 48.6402 33.744 48.9336 34.14C49.2269 34.536 49.5936 34.734 50.0336 34.734Z" fill="white"/>
</svg>
